<svg width="42" height="42" viewBox="0 0 42 42" fill="none" xmlns="http://www.w3.org/2000/svg">
<path d="M34.125 15.75H23.625V5.25H7.875V36.75H34.125V15.75ZM33.0383 13.125L26.25 6.33675V13.125H33.0383ZM6.5625 2.625H26.25L36.75 13.125V38.0625C36.75 38.4106 36.6117 38.7444 36.3656 38.9906C36.1194 39.2367 35.7856 39.375 35.4375 39.375H6.5625C6.2144 39.375 5.88056 39.2367 5.63442 38.9906C5.38828 38.7444 5.25 38.4106 5.25 38.0625V3.9375C5.25 3.5894 5.38828 3.25556 5.63442 3.00942C5.88056 2.76328 6.2144 2.625 6.5625 2.625ZM19.6875 23.625V18.375H22.3125V23.625H27.5625V26.25H22.3125V31.5H19.6875V26.25H14.4375V23.625H19.6875Z" fill="black"/>
</svg>
